<mxfile host="65bd71144e" pages="2">
    <diagram id="EohfGl94pAmbR23JjvDA" name="load">
        <mxGraphModel dx="936" dy="717" grid="1" gridSize="10" guides="1" tooltips="1" connect="1" arrows="1" fold="1" page="1" pageScale="1" pageWidth="827" pageHeight="1169" math="0" shadow="0">
            <root>
                <mxCell id="0"/>
                <mxCell id="1" parent="0"/>
                <mxCell id="IEQ3ch7ANnA4S6rGPWT_-20" value="atomic" style="edgeStyle=orthogonalEdgeStyle;rounded=0;orthogonalLoop=1;jettySize=auto;html=1;exitX=0.5;exitY=1;exitDx=0;exitDy=0;entryX=0.5;entryY=0;entryDx=0;entryDy=0;fontSize=16;" parent="1" source="IEQ3ch7ANnA4S6rGPWT_-18" target="IEQ3ch7ANnA4S6rGPWT_-19" edge="1">
                    <mxGeometry relative="1" as="geometry"/>
                </mxCell>
                <mxCell id="IEQ3ch7ANnA4S6rGPWT_-18" value="read" style="rounded=0;whiteSpace=wrap;html=1;strokeWidth=2;fontSize=17;fillColor=#dae8fc;strokeColor=#6c8ebf;" parent="1" vertex="1">
                    <mxGeometry x="300" y="360" width="130" height="48" as="geometry"/>
                </mxCell>
                <mxCell id="IEQ3ch7ANnA4S6rGPWT_-24" style="edgeStyle=orthogonalEdgeStyle;rounded=0;orthogonalLoop=1;jettySize=auto;html=1;exitX=1;exitY=0.5;exitDx=0;exitDy=0;fontSize=16;" parent="1" source="IEQ3ch7ANnA4S6rGPWT_-19" target="IEQ3ch7ANnA4S6rGPWT_-25" edge="1">
                    <mxGeometry relative="1" as="geometry">
                        <mxPoint x="440" y="524" as="targetPoint"/>
                    </mxGeometry>
                </mxCell>
                <mxCell id="IEQ3ch7ANnA4S6rGPWT_-19" value="readOnly" style="rounded=0;whiteSpace=wrap;html=1;strokeWidth=2;fontSize=17;fillColor=#fff2cc;strokeColor=#d6b656;" parent="1" vertex="1">
                    <mxGeometry x="300" y="500" width="130" height="48" as="geometry"/>
                </mxCell>
                <mxCell id="IEQ3ch7ANnA4S6rGPWT_-23" value="I. from read only" style="edgeStyle=orthogonalEdgeStyle;rounded=0;orthogonalLoop=1;jettySize=auto;html=1;exitX=1;exitY=0.5;exitDx=0;exitDy=0;entryX=0;entryY=0.5;entryDx=0;entryDy=0;fontSize=16;" parent="1" source="IEQ3ch7ANnA4S6rGPWT_-22" target="IEQ3ch7ANnA4S6rGPWT_-19" edge="1">
                    <mxGeometry relative="1" as="geometry"/>
                </mxCell>
                <mxCell id="IEQ3ch7ANnA4S6rGPWT_-30" value="II. from dirty" style="edgeStyle=orthogonalEdgeStyle;rounded=0;orthogonalLoop=1;jettySize=auto;html=1;exitX=0.5;exitY=1;exitDx=0;exitDy=0;entryX=0;entryY=0.5;entryDx=0;entryDy=0;fontSize=16;" parent="1" source="IEQ3ch7ANnA4S6rGPWT_-22" target="IEQ3ch7ANnA4S6rGPWT_-28" edge="1">
                    <mxGeometry x="0.3642" relative="1" as="geometry">
                        <mxPoint as="offset"/>
                    </mxGeometry>
                </mxCell>
                <mxCell id="IEQ3ch7ANnA4S6rGPWT_-22" value="key" style="rounded=0;whiteSpace=wrap;html=1;strokeWidth=2;fontSize=17;fillColor=#d5e8d4;strokeColor=#82b366;" parent="1" vertex="1">
                    <mxGeometry x="60" y="500" width="40" height="48" as="geometry"/>
                </mxCell>
                <mxCell id="IEQ3ch7ANnA4S6rGPWT_-25" value="entry" style="rounded=0;whiteSpace=wrap;html=1;strokeWidth=2;fontSize=17;fillColor=#f8cecc;strokeColor=#b85450;" parent="1" vertex="1">
                    <mxGeometry x="550" y="500" width="40" height="48" as="geometry"/>
                </mxCell>
                <mxCell id="IEQ3ch7ANnA4S6rGPWT_-31" style="edgeStyle=orthogonalEdgeStyle;rounded=0;orthogonalLoop=1;jettySize=auto;html=1;exitX=1;exitY=0.5;exitDx=0;exitDy=0;fontSize=16;entryX=0;entryY=0.5;entryDx=0;entryDy=0;" parent="1" source="IEQ3ch7ANnA4S6rGPWT_-28" target="IEQ3ch7ANnA4S6rGPWT_-33" edge="1">
                    <mxGeometry relative="1" as="geometry">
                        <mxPoint x="420" y="674" as="targetPoint"/>
                    </mxGeometry>
                </mxCell>
                <mxCell id="xls3VNggyU1KULkcKm8i-1" value="III. missLocked" style="edgeStyle=orthogonalEdgeStyle;rounded=0;orthogonalLoop=1;jettySize=auto;html=1;exitX=0.5;exitY=1;exitDx=0;exitDy=0;fontSize=16;entryX=0.5;entryY=0;entryDx=0;entryDy=0;" parent="1" source="IEQ3ch7ANnA4S6rGPWT_-28" target="xls3VNggyU1KULkcKm8i-3" edge="1">
                    <mxGeometry relative="1" as="geometry">
                        <mxPoint x="350" y="800" as="targetPoint"/>
                    </mxGeometry>
                </mxCell>
                <mxCell id="xls3VNggyU1KULkcKm8i-10" style="edgeStyle=orthogonalEdgeStyle;rounded=0;orthogonalLoop=1;jettySize=auto;html=1;exitX=0.5;exitY=0;exitDx=0;exitDy=0;entryX=0.5;entryY=1;entryDx=0;entryDy=0;startArrow=none;startFill=0;fontSize=16;endArrow=block;endFill=0;" parent="1" source="IEQ3ch7ANnA4S6rGPWT_-28" target="IEQ3ch7ANnA4S6rGPWT_-19" edge="1">
                    <mxGeometry relative="1" as="geometry"/>
                </mxCell>
                <mxCell id="xls3VNggyU1KULkcKm8i-12" value="V. store" style="edgeLabel;html=1;align=center;verticalAlign=middle;resizable=0;points=[];fontSize=16;" parent="xls3VNggyU1KULkcKm8i-10" vertex="1" connectable="0">
                    <mxGeometry y="-2" relative="1" as="geometry">
                        <mxPoint as="offset"/>
                    </mxGeometry>
                </mxCell>
                <mxCell id="IEQ3ch7ANnA4S6rGPWT_-28" value="dirty" style="rounded=0;whiteSpace=wrap;html=1;strokeWidth=2;fontSize=17;fillColor=#dae8fc;strokeColor=#6c8ebf;" parent="1" vertex="1">
                    <mxGeometry x="300" y="650" width="130" height="48" as="geometry"/>
                </mxCell>
                <mxCell id="IEQ3ch7ANnA4S6rGPWT_-33" value="entry" style="rounded=0;whiteSpace=wrap;html=1;strokeWidth=2;fontSize=17;fillColor=#f8cecc;strokeColor=#b85450;" parent="1" vertex="1">
                    <mxGeometry x="550" y="650" width="40" height="48" as="geometry"/>
                </mxCell>
                <mxCell id="xls3VNggyU1KULkcKm8i-9" value="IV. check" style="edgeStyle=orthogonalEdgeStyle;rounded=0;orthogonalLoop=1;jettySize=auto;html=1;exitX=1;exitY=0.5;exitDx=0;exitDy=0;entryX=0;entryY=0.5;entryDx=0;entryDy=0;startArrow=none;fontSize=16;startFill=0;" parent="1" source="xls3VNggyU1KULkcKm8i-3" target="xls3VNggyU1KULkcKm8i-8" edge="1">
                    <mxGeometry relative="1" as="geometry"/>
                </mxCell>
                <mxCell id="xls3VNggyU1KULkcKm8i-3" value="misses++" style="rounded=0;whiteSpace=wrap;html=1;strokeWidth=2;fontSize=17;fillColor=#dae8fc;strokeColor=#6c8ebf;" parent="1" vertex="1">
                    <mxGeometry x="300" y="800" width="130" height="48" as="geometry"/>
                </mxCell>
                <mxCell id="xls3VNggyU1KULkcKm8i-13" style="edgeStyle=orthogonalEdgeStyle;rounded=0;orthogonalLoop=1;jettySize=auto;html=1;exitX=0.5;exitY=0;exitDx=0;exitDy=0;startArrow=none;startFill=0;endArrow=classic;endFill=1;fontSize=16;" parent="1" source="xls3VNggyU1KULkcKm8i-8" edge="1">
                    <mxGeometry relative="1" as="geometry">
                        <mxPoint x="410" y="600" as="targetPoint"/>
                        <Array as="points">
                            <mxPoint x="630" y="600"/>
                            <mxPoint x="390" y="600"/>
                        </Array>
                    </mxGeometry>
                </mxCell>
                <mxCell id="xls3VNggyU1KULkcKm8i-15" value="false" style="edgeLabel;html=1;align=center;verticalAlign=middle;resizable=0;points=[];fontSize=16;" parent="xls3VNggyU1KULkcKm8i-13" vertex="1" connectable="0">
                    <mxGeometry x="-0.3378" y="-3" relative="1" as="geometry">
                        <mxPoint x="-3" y="69" as="offset"/>
                    </mxGeometry>
                </mxCell>
                <mxCell id="xls3VNggyU1KULkcKm8i-8" value="misses &amp;lt; len(dirty)" style="rounded=0;whiteSpace=wrap;html=1;strokeWidth=2;fontSize=17;fillColor=#ffe6cc;strokeColor=#d79b00;" parent="1" vertex="1">
                    <mxGeometry x="620" y="800" width="180" height="48" as="geometry"/>
                </mxCell>
                <mxCell id="sYfd352xUrGEVoxzwRyT-3" value="mutex" style="text;html=1;align=center;verticalAlign=middle;resizable=0;points=[];autosize=1;fontSize=16;" parent="1" vertex="1">
                    <mxGeometry x="300" y="630" width="60" height="20" as="geometry"/>
                </mxCell>
            </root>
        </mxGraphModel>
    </diagram>
    <diagram id="VGDs2ik_kLSa3IIK4q_s" name="Store">
        <mxGraphModel dx="936" dy="717" grid="1" gridSize="10" guides="1" tooltips="1" connect="1" arrows="1" fold="1" page="1" pageScale="1" pageWidth="827" pageHeight="1169" math="0" shadow="0">
            <root>
                <mxCell id="5Cs4xMs9b8hQoBeeYG1A-0"/>
                <mxCell id="5Cs4xMs9b8hQoBeeYG1A-1" parent="5Cs4xMs9b8hQoBeeYG1A-0"/>
                <mxCell id="2JL9i7e5ZqUlDoUBD3M4-8" value="atomic" style="edgeStyle=orthogonalEdgeStyle;rounded=0;orthogonalLoop=1;jettySize=auto;html=1;exitX=0.5;exitY=1;exitDx=0;exitDy=0;entryX=0.5;entryY=0;entryDx=0;entryDy=0;startArrow=none;startFill=0;endArrow=classic;endFill=1;fontSize=16;" parent="5Cs4xMs9b8hQoBeeYG1A-1" source="2JL9i7e5ZqUlDoUBD3M4-0" target="2JL9i7e5ZqUlDoUBD3M4-1" edge="1">
                    <mxGeometry relative="1" as="geometry"/>
                </mxCell>
                <mxCell id="2JL9i7e5ZqUlDoUBD3M4-0" value="read" style="rounded=0;whiteSpace=wrap;html=1;strokeWidth=2;fontSize=20;fillColor=#dae8fc;strokeColor=#6c8ebf;" parent="5Cs4xMs9b8hQoBeeYG1A-1" vertex="1">
                    <mxGeometry x="330" y="250" width="140" height="60" as="geometry"/>
                </mxCell>
                <mxCell id="2JL9i7e5ZqUlDoUBD3M4-14" style="edgeStyle=orthogonalEdgeStyle;rounded=0;orthogonalLoop=1;jettySize=auto;html=1;exitX=1;exitY=0.5;exitDx=0;exitDy=0;startArrow=none;startFill=0;endArrow=classic;endFill=1;fontSize=16;entryX=0;entryY=0.5;entryDx=0;entryDy=0;" parent="5Cs4xMs9b8hQoBeeYG1A-1" source="2JL9i7e5ZqUlDoUBD3M4-1" target="2JL9i7e5ZqUlDoUBD3M4-16" edge="1">
                    <mxGeometry relative="1" as="geometry">
                        <mxPoint x="620" y="460" as="targetPoint"/>
                    </mxGeometry>
                </mxCell>
                <mxCell id="2JL9i7e5ZqUlDoUBD3M4-1" value="readOnly" style="rounded=0;whiteSpace=wrap;html=1;strokeWidth=2;fontSize=20;fillColor=#fff2cc;strokeColor=#d6b656;" parent="5Cs4xMs9b8hQoBeeYG1A-1" vertex="1">
                    <mxGeometry x="330" y="430" width="140" height="60" as="geometry"/>
                </mxCell>
                <mxCell id="2JL9i7e5ZqUlDoUBD3M4-15" style="edgeStyle=orthogonalEdgeStyle;rounded=0;orthogonalLoop=1;jettySize=auto;html=1;exitX=1;exitY=0.5;exitDx=0;exitDy=0;startArrow=none;startFill=0;endArrow=classic;endFill=1;fontSize=16;entryX=0;entryY=0.5;entryDx=0;entryDy=0;" parent="5Cs4xMs9b8hQoBeeYG1A-1" source="2JL9i7e5ZqUlDoUBD3M4-2" target="2JL9i7e5ZqUlDoUBD3M4-17" edge="1">
                    <mxGeometry relative="1" as="geometry">
                        <mxPoint x="620" y="651" as="targetPoint"/>
                    </mxGeometry>
                </mxCell>
                <mxCell id="2JL9i7e5ZqUlDoUBD3M4-2" value="dirty" style="rounded=0;whiteSpace=wrap;html=1;strokeWidth=2;fontSize=20;fillColor=#fff2cc;strokeColor=#d6b656;" parent="5Cs4xMs9b8hQoBeeYG1A-1" vertex="1">
                    <mxGeometry x="330" y="621" width="140" height="60" as="geometry"/>
                </mxCell>
                <mxCell id="2JL9i7e5ZqUlDoUBD3M4-12" value="protect" style="edgeStyle=orthogonalEdgeStyle;rounded=0;orthogonalLoop=1;jettySize=auto;html=1;exitX=0.5;exitY=0;exitDx=0;exitDy=0;entryX=0.5;entryY=1;entryDx=0;entryDy=0;startArrow=none;startFill=0;endArrow=classic;endFill=1;fontSize=16;" parent="5Cs4xMs9b8hQoBeeYG1A-1" source="2JL9i7e5ZqUlDoUBD3M4-3" target="2JL9i7e5ZqUlDoUBD3M4-2" edge="1">
                    <mxGeometry relative="1" as="geometry"/>
                </mxCell>
                <mxCell id="2JL9i7e5ZqUlDoUBD3M4-3" value="mutex" style="rounded=0;whiteSpace=wrap;html=1;strokeWidth=2;fontSize=20;fillColor=#dae8fc;strokeColor=#6c8ebf;" parent="5Cs4xMs9b8hQoBeeYG1A-1" vertex="1">
                    <mxGeometry x="330" y="770" width="140" height="60" as="geometry"/>
                </mxCell>
                <mxCell id="2JL9i7e5ZqUlDoUBD3M4-10" value="i" style="edgeStyle=orthogonalEdgeStyle;rounded=0;orthogonalLoop=1;jettySize=auto;html=1;exitX=1;exitY=0.5;exitDx=0;exitDy=0;startArrow=none;startFill=0;endArrow=classic;endFill=1;fontSize=16;" parent="5Cs4xMs9b8hQoBeeYG1A-1" source="2JL9i7e5ZqUlDoUBD3M4-6" target="2JL9i7e5ZqUlDoUBD3M4-1" edge="1">
                    <mxGeometry relative="1" as="geometry"/>
                </mxCell>
                <mxCell id="2JL9i7e5ZqUlDoUBD3M4-28" value="I. read readOnly" style="edgeLabel;html=1;align=center;verticalAlign=middle;resizable=0;points=[];fontSize=16;" parent="2JL9i7e5ZqUlDoUBD3M4-10" vertex="1" connectable="0">
                    <mxGeometry x="0.0273" y="-1" relative="1" as="geometry">
                        <mxPoint as="offset"/>
                    </mxGeometry>
                </mxCell>
                <mxCell id="2JL9i7e5ZqUlDoUBD3M4-11" style="edgeStyle=orthogonalEdgeStyle;rounded=0;orthogonalLoop=1;jettySize=auto;html=1;exitX=0.5;exitY=1;exitDx=0;exitDy=0;entryX=0;entryY=0.5;entryDx=0;entryDy=0;startArrow=none;startFill=0;endArrow=classic;endFill=1;fontSize=16;" parent="5Cs4xMs9b8hQoBeeYG1A-1" source="2JL9i7e5ZqUlDoUBD3M4-6" target="2JL9i7e5ZqUlDoUBD3M4-2" edge="1">
                    <mxGeometry relative="1" as="geometry"/>
                </mxCell>
                <mxCell id="2JL9i7e5ZqUlDoUBD3M4-29" value="II. lock and read dirty" style="edgeLabel;html=1;align=center;verticalAlign=middle;resizable=0;points=[];fontSize=16;" parent="2JL9i7e5ZqUlDoUBD3M4-11" vertex="1" connectable="0">
                    <mxGeometry x="0.4286" relative="1" as="geometry">
                        <mxPoint x="-14" as="offset"/>
                    </mxGeometry>
                </mxCell>
                <mxCell id="2JL9i7e5ZqUlDoUBD3M4-6" value="key" style="rounded=0;whiteSpace=wrap;html=1;strokeWidth=2;fontSize=17;fillColor=#d5e8d4;strokeColor=#82b366;" parent="5Cs4xMs9b8hQoBeeYG1A-1" vertex="1">
                    <mxGeometry x="60" y="430" width="50" height="60" as="geometry"/>
                </mxCell>
                <mxCell id="2JL9i7e5ZqUlDoUBD3M4-16" value="entry" style="rounded=0;whiteSpace=wrap;html=1;strokeWidth=2;fontSize=17;fillColor=#f8cecc;strokeColor=#b85450;" parent="5Cs4xMs9b8hQoBeeYG1A-1" vertex="1">
                    <mxGeometry x="640" y="430" width="50" height="60" as="geometry"/>
                </mxCell>
                <mxCell id="2JL9i7e5ZqUlDoUBD3M4-17" value="entry" style="rounded=0;whiteSpace=wrap;html=1;strokeWidth=2;fontSize=17;fillColor=#f8cecc;strokeColor=#b85450;" parent="5Cs4xMs9b8hQoBeeYG1A-1" vertex="1">
                    <mxGeometry x="640" y="621" width="50" height="60" as="geometry"/>
                </mxCell>
                <mxCell id="2JL9i7e5ZqUlDoUBD3M4-19" value="I. store" style="edgeStyle=orthogonalEdgeStyle;rounded=0;orthogonalLoop=1;jettySize=auto;html=1;exitX=0;exitY=0.5;exitDx=0;exitDy=0;startArrow=none;startFill=0;endArrow=classic;endFill=1;fontSize=16;" parent="5Cs4xMs9b8hQoBeeYG1A-1" source="2JL9i7e5ZqUlDoUBD3M4-18" target="2JL9i7e5ZqUlDoUBD3M4-16" edge="1">
                    <mxGeometry relative="1" as="geometry"/>
                </mxCell>
                <mxCell id="2JL9i7e5ZqUlDoUBD3M4-20" style="edgeStyle=orthogonalEdgeStyle;rounded=0;orthogonalLoop=1;jettySize=auto;html=1;exitX=0.5;exitY=1;exitDx=0;exitDy=0;entryX=1;entryY=0.5;entryDx=0;entryDy=0;startArrow=none;startFill=0;endArrow=classic;endFill=1;fontSize=16;" parent="5Cs4xMs9b8hQoBeeYG1A-1" source="2JL9i7e5ZqUlDoUBD3M4-18" target="2JL9i7e5ZqUlDoUBD3M4-17" edge="1">
                    <mxGeometry relative="1" as="geometry"/>
                </mxCell>
                <mxCell id="2JL9i7e5ZqUlDoUBD3M4-21" value="II.store" style="edgeLabel;html=1;align=center;verticalAlign=middle;resizable=0;points=[];fontSize=16;" parent="2JL9i7e5ZqUlDoUBD3M4-20" vertex="1" connectable="0">
                    <mxGeometry x="0.5655" y="4" relative="1" as="geometry">
                        <mxPoint y="-4" as="offset"/>
                    </mxGeometry>
                </mxCell>
                <mxCell id="2JL9i7e5ZqUlDoUBD3M4-22" style="edgeStyle=orthogonalEdgeStyle;rounded=0;orthogonalLoop=1;jettySize=auto;html=1;exitX=0.25;exitY=1;exitDx=0;exitDy=0;startArrow=none;startFill=0;endArrow=classic;endFill=1;fontSize=16;entryX=1;entryY=0.5;entryDx=0;entryDy=0;" parent="5Cs4xMs9b8hQoBeeYG1A-1" source="2JL9i7e5ZqUlDoUBD3M4-18" target="2JL9i7e5ZqUlDoUBD3M4-24" edge="1">
                    <mxGeometry relative="1" as="geometry">
                        <mxPoint x="680" y="556" as="targetPoint"/>
                    </mxGeometry>
                </mxCell>
                <mxCell id="2JL9i7e5ZqUlDoUBD3M4-25" value="III.new" style="edgeLabel;html=1;align=center;verticalAlign=middle;resizable=0;points=[];fontSize=16;" parent="2JL9i7e5ZqUlDoUBD3M4-22" vertex="1" connectable="0">
                    <mxGeometry x="-0.2126" y="4" relative="1" as="geometry">
                        <mxPoint x="-60.5" y="-4" as="offset"/>
                    </mxGeometry>
                </mxCell>
                <mxCell id="2JL9i7e5ZqUlDoUBD3M4-18" value="value" style="rounded=0;whiteSpace=wrap;html=1;strokeWidth=2;fontSize=17;fillColor=#d5e8d4;strokeColor=#82b366;" parent="5Cs4xMs9b8hQoBeeYG1A-1" vertex="1">
                    <mxGeometry x="840" y="430" width="50" height="60" as="geometry"/>
                </mxCell>
                <mxCell id="2JL9i7e5ZqUlDoUBD3M4-26" value="III.store" style="edgeStyle=orthogonalEdgeStyle;rounded=0;orthogonalLoop=1;jettySize=auto;html=1;exitX=0;exitY=0.75;exitDx=0;exitDy=0;entryX=0.5;entryY=0;entryDx=0;entryDy=0;startArrow=none;startFill=0;endArrow=classic;endFill=1;fontSize=16;" parent="5Cs4xMs9b8hQoBeeYG1A-1" source="2JL9i7e5ZqUlDoUBD3M4-24" target="2JL9i7e5ZqUlDoUBD3M4-2" edge="1">
                    <mxGeometry x="0.0145" relative="1" as="geometry">
                        <mxPoint as="offset"/>
                    </mxGeometry>
                </mxCell>
                <mxCell id="2JL9i7e5ZqUlDoUBD3M4-27" value="III.amended = true" style="edgeStyle=orthogonalEdgeStyle;rounded=0;orthogonalLoop=1;jettySize=auto;html=1;exitX=0;exitY=0.25;exitDx=0;exitDy=0;entryX=0.5;entryY=1;entryDx=0;entryDy=0;startArrow=none;startFill=0;endArrow=classic;endFill=1;fontSize=16;" parent="5Cs4xMs9b8hQoBeeYG1A-1" source="2JL9i7e5ZqUlDoUBD3M4-24" target="2JL9i7e5ZqUlDoUBD3M4-1" edge="1">
                    <mxGeometry x="-0.082" relative="1" as="geometry">
                        <mxPoint as="offset"/>
                    </mxGeometry>
                </mxCell>
                <mxCell id="2JL9i7e5ZqUlDoUBD3M4-24" value="entry" style="rounded=0;whiteSpace=wrap;html=1;strokeWidth=2;fontSize=17;fillColor=#d5e8d4;strokeColor=#82b366;" parent="5Cs4xMs9b8hQoBeeYG1A-1" vertex="1">
                    <mxGeometry x="640" y="530" width="50" height="60" as="geometry"/>
                </mxCell>
            </root>
        </mxGraphModel>
    </diagram>
</mxfile>